<mxfile host="app.diagrams.net" modified="2024-04-25T13:08:01.799Z" agent="Mozilla/5.0 (Windows NT 10.0; Win64; x64; rv:125.0) Gecko/20100101 Firefox/125.0" etag="smxFQ2-S_BXEbmrvjUzp" version="24.3.0" type="github">
  <diagram name="Page-1" id="b5b7bab2-c9e2-2cf4-8b2a-24fd1a2a6d21">
    <mxGraphModel dx="1050" dy="530" grid="1" gridSize="10" guides="1" tooltips="1" connect="1" arrows="1" fold="1" page="1" pageScale="1" pageWidth="827" pageHeight="1169" background="none" math="0" shadow="0">
      <root>
        <mxCell id="0" />
        <mxCell id="1" parent="0" />
        <mxCell id="TzorIkQO2-a-A3ozFa3I-59" value="" style="shape=folder;fontStyle=1;spacingTop=10;tabWidth=120;tabHeight=20;tabPosition=left;html=1;rounded=0;shadow=0;comic=0;labelBackgroundColor=none;strokeWidth=1;fillColor=none;fontFamily=Verdana;fontSize=10;align=center;movable=1;resizable=1;rotatable=1;deletable=1;editable=1;locked=0;connectable=1;" vertex="1" parent="1">
          <mxGeometry x="1560" y="120" width="210" height="500" as="geometry" />
        </mxCell>
        <mxCell id="TzorIkQO2-a-A3ozFa3I-58" value="" style="shape=folder;fontStyle=1;spacingTop=10;tabWidth=194;tabHeight=22;tabPosition=left;html=1;rounded=0;shadow=0;comic=0;labelBackgroundColor=none;strokeWidth=1;fillColor=none;fontFamily=Verdana;fontSize=10;align=center;movable=1;resizable=1;rotatable=1;deletable=1;editable=1;locked=0;connectable=1;" vertex="1" parent="1">
          <mxGeometry x="331.25" y="730" width="292.5" height="120" as="geometry" />
        </mxCell>
        <mxCell id="6e0c8c40b5770093-72" value="" style="shape=folder;fontStyle=1;spacingTop=10;tabWidth=194;tabHeight=22;tabPosition=left;html=1;rounded=0;shadow=0;comic=0;labelBackgroundColor=none;strokeWidth=1;fillColor=none;fontFamily=Verdana;fontSize=10;align=center;movable=1;resizable=1;rotatable=1;deletable=1;editable=1;locked=0;connectable=1;" parent="1" vertex="1">
          <mxGeometry x="326.5" y="114.5" width="1093.5" height="505.5" as="geometry" />
        </mxCell>
        <mxCell id="TzorIkQO2-a-A3ozFa3I-1" value="" style="shape=folder;fontStyle=1;spacingTop=10;tabWidth=123;tabHeight=24;tabPosition=left;html=1;rounded=0;shadow=0;comic=0;labelBackgroundColor=none;strokeWidth=1;fontFamily=Verdana;fontSize=10;align=center;movable=1;resizable=1;rotatable=1;deletable=1;editable=1;locked=0;connectable=1;" vertex="1" parent="1">
          <mxGeometry x="411.5" y="220" width="332" height="130" as="geometry" />
        </mxCell>
        <mxCell id="6e0c8c40b5770093-30" value="" style="group" parent="1" vertex="1" connectable="0">
          <mxGeometry x="840" y="220" width="230" height="350" as="geometry" />
        </mxCell>
        <mxCell id="6e0c8c40b5770093-24" value="" style="group" parent="6e0c8c40b5770093-30" vertex="1" connectable="0">
          <mxGeometry width="230" height="350" as="geometry" />
        </mxCell>
        <mxCell id="6e0c8c40b5770093-25" value="" style="shape=folder;fontStyle=1;spacingTop=10;tabWidth=123;tabHeight=24;tabPosition=left;html=1;rounded=0;shadow=0;comic=0;labelBackgroundColor=none;strokeWidth=1;fontFamily=Verdana;fontSize=10;align=center;" parent="6e0c8c40b5770093-24" vertex="1">
          <mxGeometry width="230" height="350" as="geometry" />
        </mxCell>
        <mxCell id="6e0c8c40b5770093-29" value="" style="triangle;whiteSpace=wrap;html=1;rounded=0;shadow=0;comic=0;labelBackgroundColor=none;strokeWidth=1;fontFamily=Verdana;fontSize=10;align=center;rotation=-90;" parent="6e0c8c40b5770093-24" vertex="1">
          <mxGeometry x="100" y="1.4583333333333335" width="15" height="14.583333333333336" as="geometry" />
        </mxCell>
        <mxCell id="TzorIkQO2-a-A3ozFa3I-14" style="edgeStyle=orthogonalEdgeStyle;rounded=0;orthogonalLoop=1;jettySize=auto;html=1;entryX=0;entryY=0;entryDx=25;entryDy=0;entryPerimeter=0;dashed=1;" edge="1" parent="6e0c8c40b5770093-24" source="6e0c8c40b5770093-27" target="6e0c8c40b5770093-31">
          <mxGeometry relative="1" as="geometry" />
        </mxCell>
        <mxCell id="TzorIkQO2-a-A3ozFa3I-15" value="&amp;lt;&amp;lt;uses&amp;gt;&amp;gt;" style="edgeLabel;html=1;align=center;verticalAlign=middle;resizable=0;points=[];" vertex="1" connectable="0" parent="TzorIkQO2-a-A3ozFa3I-14">
          <mxGeometry x="-0.6376" y="-1" relative="1" as="geometry">
            <mxPoint as="offset" />
          </mxGeometry>
        </mxCell>
        <mxCell id="6e0c8c40b5770093-27" value="EntityService" style="shape=folder;fontStyle=1;spacingTop=10;tabWidth=50;tabHeight=17;tabPosition=left;html=1;rounded=0;shadow=0;comic=0;labelBackgroundColor=none;strokeWidth=1;fontFamily=Verdana;fontSize=10;align=center;" parent="6e0c8c40b5770093-24" vertex="1">
          <mxGeometry x="27" y="57.6" width="183" height="112.4" as="geometry" />
        </mxCell>
        <mxCell id="6e0c8c40b5770093-31" value="EntityServiceImplementation" style="shape=folder;fontStyle=1;spacingTop=10;tabWidth=50;tabHeight=17;tabPosition=left;html=1;rounded=0;shadow=0;comic=0;labelBackgroundColor=none;strokeWidth=1;fontFamily=Verdana;fontSize=10;align=center;" parent="6e0c8c40b5770093-24" vertex="1">
          <mxGeometry x="27" y="200" width="183" height="110" as="geometry" />
        </mxCell>
        <mxCell id="TzorIkQO2-a-A3ozFa3I-13" value="Service Layer" style="text;html=1;align=center;verticalAlign=middle;whiteSpace=wrap;rounded=0;" vertex="1" parent="6e0c8c40b5770093-24">
          <mxGeometry y="1.46" width="100" height="25" as="geometry" />
        </mxCell>
        <mxCell id="6e0c8c40b5770093-73" value="&amp;lt;&amp;lt;backend&amp;gt;&amp;gt;" style="text;html=1;align=left;verticalAlign=top;spacingTop=-4;fontSize=10;fontFamily=Verdana" parent="1" vertex="1">
          <mxGeometry x="327.5" y="114.5" width="130" height="20" as="geometry" />
        </mxCell>
        <mxCell id="TzorIkQO2-a-A3ozFa3I-3" value="" style="triangle;whiteSpace=wrap;html=1;rounded=0;shadow=0;comic=0;labelBackgroundColor=none;strokeWidth=1;fontFamily=Verdana;fontSize=10;align=center;rotation=-90;" vertex="1" parent="1">
          <mxGeometry x="510" y="220" width="15" height="20" as="geometry" />
        </mxCell>
        <mxCell id="TzorIkQO2-a-A3ozFa3I-4" value="Utility Layer" style="text;html=1;align=center;verticalAlign=middle;whiteSpace=wrap;rounded=0;" vertex="1" parent="1">
          <mxGeometry x="414" y="220" width="76" height="25" as="geometry" />
        </mxCell>
        <mxCell id="TzorIkQO2-a-A3ozFa3I-5" value="Model" style="shape=folder;fontStyle=1;spacingTop=10;tabWidth=50;tabHeight=17;tabPosition=left;html=1;rounded=0;shadow=0;comic=0;labelBackgroundColor=none;strokeColor=#000000;strokeWidth=1;fillColor=#ffffff;fontFamily=Verdana;fontSize=10;fontColor=#000000;align=center;movable=0;resizable=0;rotatable=0;deletable=0;editable=0;locked=1;connectable=0;" vertex="1" parent="1">
          <mxGeometry x="430" y="260" width="112" height="70" as="geometry" />
        </mxCell>
        <mxCell id="TzorIkQO2-a-A3ozFa3I-6" value="Proposal" style="shape=folder;fontStyle=1;spacingTop=10;tabWidth=50;tabHeight=17;tabPosition=left;html=1;rounded=0;shadow=0;comic=0;labelBackgroundColor=none;strokeColor=#000000;strokeWidth=1;fillColor=#ffffff;fontFamily=Verdana;fontSize=10;fontColor=#000000;align=center;movable=0;resizable=0;rotatable=0;deletable=0;editable=0;locked=1;connectable=0;" vertex="1" parent="1">
          <mxGeometry x="585.5" y="260" width="112" height="70" as="geometry" />
        </mxCell>
        <mxCell id="TzorIkQO2-a-A3ozFa3I-7" style="edgeStyle=none;rounded=0;html=1;entryX=0.43;entryY=0.173;entryPerimeter=0;dashed=1;labelBackgroundColor=none;startFill=0;endArrow=open;endFill=0;endSize=10;fontFamily=Verdana;fontSize=10;movable=0;resizable=0;rotatable=0;deletable=0;editable=0;locked=1;connectable=0;" edge="1" parent="1" target="TzorIkQO2-a-A3ozFa3I-8">
          <mxGeometry relative="1" as="geometry">
            <mxPoint x="546.1922657291793" y="480" as="sourcePoint" />
          </mxGeometry>
        </mxCell>
        <mxCell id="TzorIkQO2-a-A3ozFa3I-8" value="" style="shape=folder;fontStyle=1;spacingTop=10;tabWidth=123;tabHeight=24;tabPosition=left;html=1;rounded=0;shadow=0;comic=0;labelBackgroundColor=none;strokeWidth=1;fontFamily=Verdana;fontSize=10;align=center;movable=1;resizable=1;rotatable=1;deletable=1;editable=1;locked=0;connectable=1;" vertex="1" parent="1">
          <mxGeometry x="410" y="422" width="158.5" height="130" as="geometry" />
        </mxCell>
        <mxCell id="TzorIkQO2-a-A3ozFa3I-9" value="" style="triangle;whiteSpace=wrap;html=1;rounded=0;shadow=0;comic=0;labelBackgroundColor=none;strokeWidth=1;fontFamily=Verdana;fontSize=10;align=center;rotation=-90;movable=0;resizable=0;rotatable=0;deletable=0;editable=0;locked=1;connectable=0;" vertex="1" parent="1">
          <mxGeometry x="510" y="422" width="15" height="20" as="geometry" />
        </mxCell>
        <mxCell id="TzorIkQO2-a-A3ozFa3I-10" value="EntityController" style="shape=folder;fontStyle=1;spacingTop=10;tabWidth=50;tabHeight=17;tabPosition=left;html=1;rounded=0;shadow=0;comic=0;labelBackgroundColor=none;strokeWidth=1;fontFamily=Verdana;fontSize=10;align=center;movable=0;resizable=0;rotatable=0;deletable=0;editable=0;locked=1;connectable=0;" vertex="1" parent="1">
          <mxGeometry x="432" y="460" width="112" height="70" as="geometry" />
        </mxCell>
        <mxCell id="TzorIkQO2-a-A3ozFa3I-12" value="Controller Layer" style="text;html=1;align=center;verticalAlign=middle;whiteSpace=wrap;rounded=0;movable=0;resizable=0;rotatable=0;deletable=0;editable=0;locked=1;connectable=0;" vertex="1" parent="1">
          <mxGeometry x="410" y="422" width="100" height="25" as="geometry" />
        </mxCell>
        <mxCell id="TzorIkQO2-a-A3ozFa3I-16" style="edgeStyle=orthogonalEdgeStyle;rounded=0;orthogonalLoop=1;jettySize=auto;html=1;entryX=0;entryY=0;entryDx=0;entryDy=63.5;entryPerimeter=0;dashed=1;" edge="1" parent="1" target="6e0c8c40b5770093-31">
          <mxGeometry relative="1" as="geometry">
            <mxPoint x="570" y="484" as="sourcePoint" />
          </mxGeometry>
        </mxCell>
        <mxCell id="TzorIkQO2-a-A3ozFa3I-17" value="&amp;lt;&amp;lt;accesses&amp;gt;&amp;gt;" style="edgeLabel;html=1;align=center;verticalAlign=middle;resizable=0;points=[];" vertex="1" connectable="0" parent="TzorIkQO2-a-A3ozFa3I-16">
          <mxGeometry x="-0.0045" relative="1" as="geometry">
            <mxPoint x="-1" y="-1" as="offset" />
          </mxGeometry>
        </mxCell>
        <mxCell id="TzorIkQO2-a-A3ozFa3I-18" style="edgeStyle=orthogonalEdgeStyle;rounded=0;orthogonalLoop=1;jettySize=auto;html=1;exitX=0;exitY=0;exitDx=0;exitDy=40.25;exitPerimeter=0;entryX=0;entryY=0;entryDx=332;entryDy=77;entryPerimeter=0;dashed=1;" edge="1" parent="1" source="6e0c8c40b5770093-31" target="TzorIkQO2-a-A3ozFa3I-1">
          <mxGeometry relative="1" as="geometry" />
        </mxCell>
        <mxCell id="TzorIkQO2-a-A3ozFa3I-19" value="&amp;lt;&amp;lt;uses&amp;gt;&amp;gt;" style="edgeLabel;html=1;align=center;verticalAlign=middle;resizable=0;points=[];" vertex="1" connectable="0" parent="TzorIkQO2-a-A3ozFa3I-18">
          <mxGeometry x="-0.0449" relative="1" as="geometry">
            <mxPoint as="offset" />
          </mxGeometry>
        </mxCell>
        <mxCell id="TzorIkQO2-a-A3ozFa3I-20" value="" style="group" vertex="1" connectable="0" parent="1">
          <mxGeometry x="1150" y="220" width="230" height="350" as="geometry" />
        </mxCell>
        <mxCell id="TzorIkQO2-a-A3ozFa3I-21" value="" style="group" vertex="1" connectable="0" parent="TzorIkQO2-a-A3ozFa3I-20">
          <mxGeometry width="230" height="350" as="geometry" />
        </mxCell>
        <mxCell id="TzorIkQO2-a-A3ozFa3I-22" value="" style="shape=folder;fontStyle=1;spacingTop=10;tabWidth=123;tabHeight=24;tabPosition=left;html=1;rounded=0;shadow=0;comic=0;labelBackgroundColor=none;strokeWidth=1;fontFamily=Verdana;fontSize=10;align=center;" vertex="1" parent="TzorIkQO2-a-A3ozFa3I-21">
          <mxGeometry width="230" height="350" as="geometry" />
        </mxCell>
        <mxCell id="TzorIkQO2-a-A3ozFa3I-23" value="" style="triangle;whiteSpace=wrap;html=1;rounded=0;shadow=0;comic=0;labelBackgroundColor=none;strokeWidth=1;fontFamily=Verdana;fontSize=10;align=center;rotation=-90;" vertex="1" parent="TzorIkQO2-a-A3ozFa3I-21">
          <mxGeometry x="100" y="1.4583333333333335" width="15" height="14.583333333333336" as="geometry" />
        </mxCell>
        <mxCell id="TzorIkQO2-a-A3ozFa3I-24" style="edgeStyle=orthogonalEdgeStyle;rounded=0;orthogonalLoop=1;jettySize=auto;html=1;entryX=0;entryY=0;entryDx=25;entryDy=0;entryPerimeter=0;dashed=1;" edge="1" parent="TzorIkQO2-a-A3ozFa3I-21" source="TzorIkQO2-a-A3ozFa3I-26" target="TzorIkQO2-a-A3ozFa3I-27">
          <mxGeometry relative="1" as="geometry" />
        </mxCell>
        <mxCell id="TzorIkQO2-a-A3ozFa3I-25" value="&amp;lt;&amp;lt;uses&amp;gt;&amp;gt;" style="edgeLabel;html=1;align=center;verticalAlign=middle;resizable=0;points=[];" vertex="1" connectable="0" parent="TzorIkQO2-a-A3ozFa3I-24">
          <mxGeometry x="-0.6376" y="-1" relative="1" as="geometry">
            <mxPoint as="offset" />
          </mxGeometry>
        </mxCell>
        <mxCell id="TzorIkQO2-a-A3ozFa3I-26" value="SpringEntityRepository" style="shape=folder;fontStyle=1;spacingTop=10;tabWidth=50;tabHeight=17;tabPosition=left;html=1;rounded=0;shadow=0;comic=0;labelBackgroundColor=none;strokeWidth=1;fontFamily=Verdana;fontSize=10;align=center;" vertex="1" parent="TzorIkQO2-a-A3ozFa3I-21">
          <mxGeometry x="27" y="57.6" width="183" height="112.4" as="geometry" />
        </mxCell>
        <mxCell id="TzorIkQO2-a-A3ozFa3I-27" value="EntityRepository" style="shape=folder;fontStyle=1;spacingTop=10;tabWidth=50;tabHeight=17;tabPosition=left;html=1;rounded=0;shadow=0;comic=0;labelBackgroundColor=none;strokeWidth=1;fontFamily=Verdana;fontSize=10;align=center;" vertex="1" parent="TzorIkQO2-a-A3ozFa3I-21">
          <mxGeometry x="27" y="200" width="183" height="110" as="geometry" />
        </mxCell>
        <mxCell id="TzorIkQO2-a-A3ozFa3I-28" value="Repository Layer" style="text;html=1;align=center;verticalAlign=middle;whiteSpace=wrap;rounded=0;" vertex="1" parent="TzorIkQO2-a-A3ozFa3I-21">
          <mxGeometry width="110" height="25" as="geometry" />
        </mxCell>
        <mxCell id="TzorIkQO2-a-A3ozFa3I-34" value="Atoms" style="shape=folder;fontStyle=1;spacingTop=10;tabWidth=50;tabHeight=17;tabPosition=left;html=1;rounded=0;shadow=0;comic=0;labelBackgroundColor=none;strokeWidth=1;fontFamily=Verdana;fontSize=10;align=center;" vertex="1" parent="1">
          <mxGeometry x="345.5" y="765" width="112" height="70" as="geometry" />
        </mxCell>
        <mxCell id="TzorIkQO2-a-A3ozFa3I-35" value="Molecules" style="shape=folder;fontStyle=1;spacingTop=10;tabWidth=50;tabHeight=17;tabPosition=left;html=1;rounded=0;shadow=0;comic=0;labelBackgroundColor=none;strokeWidth=1;fontFamily=Verdana;fontSize=10;align=center;" vertex="1" parent="1">
          <mxGeometry x="487.5" y="765" width="112" height="70" as="geometry" />
        </mxCell>
        <mxCell id="TzorIkQO2-a-A3ozFa3I-42" style="edgeStyle=orthogonalEdgeStyle;rounded=0;orthogonalLoop=1;jettySize=auto;html=1;exitX=0;exitY=0;exitDx=183;exitDy=63.5;exitPerimeter=0;dashed=1;" edge="1" parent="1" source="6e0c8c40b5770093-31" target="TzorIkQO2-a-A3ozFa3I-27">
          <mxGeometry relative="1" as="geometry">
            <Array as="points">
              <mxPoint x="1140" y="484" />
              <mxPoint x="1140" y="484" />
            </Array>
          </mxGeometry>
        </mxCell>
        <mxCell id="TzorIkQO2-a-A3ozFa3I-43" value="&amp;lt;&amp;lt;accesses&amp;gt;&amp;gt;" style="edgeLabel;html=1;align=center;verticalAlign=middle;resizable=0;points=[];" vertex="1" connectable="0" parent="TzorIkQO2-a-A3ozFa3I-42">
          <mxGeometry x="-0.1161" y="-2" relative="1" as="geometry">
            <mxPoint y="-2" as="offset" />
          </mxGeometry>
        </mxCell>
        <mxCell id="TzorIkQO2-a-A3ozFa3I-44" style="edgeStyle=orthogonalEdgeStyle;rounded=0;orthogonalLoop=1;jettySize=auto;html=1;exitX=0;exitY=0;exitDx=0;exitDy=40.25;exitPerimeter=0;entryX=0;entryY=0;entryDx=332;entryDy=50.5;entryPerimeter=0;dashed=1;" edge="1" parent="1" source="TzorIkQO2-a-A3ozFa3I-27" target="TzorIkQO2-a-A3ozFa3I-1">
          <mxGeometry relative="1" as="geometry">
            <Array as="points">
              <mxPoint x="1120" y="460" />
              <mxPoint x="1120" y="170" />
              <mxPoint x="810" y="170" />
              <mxPoint x="810" y="271" />
            </Array>
          </mxGeometry>
        </mxCell>
        <mxCell id="TzorIkQO2-a-A3ozFa3I-45" value="&amp;lt;&amp;lt;uses&amp;gt;&amp;gt;" style="edgeLabel;html=1;align=center;verticalAlign=middle;resizable=0;points=[];" vertex="1" connectable="0" parent="TzorIkQO2-a-A3ozFa3I-44">
          <mxGeometry x="0.2556" y="4" relative="1" as="geometry">
            <mxPoint y="-2" as="offset" />
          </mxGeometry>
        </mxCell>
        <mxCell id="TzorIkQO2-a-A3ozFa3I-46" value="&amp;lt;&amp;lt;website&amp;gt;&amp;gt;" style="text;html=1;align=center;verticalAlign=middle;whiteSpace=wrap;rounded=0;" vertex="1" parent="1">
          <mxGeometry x="327.5" y="730" width="100" height="25" as="geometry" />
        </mxCell>
        <mxCell id="TzorIkQO2-a-A3ozFa3I-47" style="edgeStyle=orthogonalEdgeStyle;rounded=0;orthogonalLoop=1;jettySize=auto;html=1;exitX=1;exitY=0;exitDx=0;exitDy=0;entryX=0.5;entryY=1;entryDx=0;entryDy=0;entryPerimeter=0;dashed=1;" edge="1" parent="1" source="TzorIkQO2-a-A3ozFa3I-46" target="TzorIkQO2-a-A3ozFa3I-8">
          <mxGeometry relative="1" as="geometry">
            <mxPoint x="394.5" y="709.9999999999998" as="sourcePoint" />
          </mxGeometry>
        </mxCell>
        <mxCell id="TzorIkQO2-a-A3ozFa3I-48" value="&amp;lt;&amp;lt;accesses&amp;gt;&amp;gt;" style="edgeLabel;html=1;align=center;verticalAlign=middle;resizable=0;points=[];" vertex="1" connectable="0" parent="TzorIkQO2-a-A3ozFa3I-47">
          <mxGeometry x="-0.6403" y="1" relative="1" as="geometry">
            <mxPoint as="offset" />
          </mxGeometry>
        </mxCell>
        <mxCell id="TzorIkQO2-a-A3ozFa3I-61" value="Tables" style="shape=folder;fontStyle=1;spacingTop=10;tabWidth=50;tabHeight=17;tabPosition=left;html=1;rounded=0;shadow=0;comic=0;labelBackgroundColor=none;strokeWidth=1;fontFamily=Verdana;fontSize=10;align=center;" vertex="1" parent="1">
          <mxGeometry x="1577" y="240" width="153" height="110" as="geometry" />
        </mxCell>
        <mxCell id="TzorIkQO2-a-A3ozFa3I-62" value="&amp;lt;&amp;lt;database&amp;gt;&amp;gt;" style="text;html=1;align=center;verticalAlign=middle;whiteSpace=wrap;rounded=0;" vertex="1" parent="1">
          <mxGeometry x="1560" y="120" width="100" height="25" as="geometry" />
        </mxCell>
        <mxCell id="TzorIkQO2-a-A3ozFa3I-63" value="Views" style="shape=folder;fontStyle=1;spacingTop=10;tabWidth=50;tabHeight=17;tabPosition=left;html=1;rounded=0;shadow=0;comic=0;labelBackgroundColor=none;strokeWidth=1;fontFamily=Verdana;fontSize=10;align=center;" vertex="1" parent="1">
          <mxGeometry x="1577" y="432" width="153" height="98" as="geometry" />
        </mxCell>
        <mxCell id="TzorIkQO2-a-A3ozFa3I-72" style="edgeStyle=orthogonalEdgeStyle;rounded=0;orthogonalLoop=1;jettySize=auto;html=1;exitX=0;exitY=0;exitDx=25;exitDy=0;exitPerimeter=0;entryX=0;entryY=0;entryDx=152.99999999999997;entryDy=63.5;entryPerimeter=0;dashed=1;" edge="1" parent="1" source="TzorIkQO2-a-A3ozFa3I-63" target="TzorIkQO2-a-A3ozFa3I-61">
          <mxGeometry relative="1" as="geometry" />
        </mxCell>
        <mxCell id="TzorIkQO2-a-A3ozFa3I-73" value="&amp;lt;&amp;lt;uses&amp;gt;&amp;gt;" style="edgeLabel;html=1;align=center;verticalAlign=middle;resizable=0;points=[];" vertex="1" connectable="0" parent="TzorIkQO2-a-A3ozFa3I-72">
          <mxGeometry x="-0.1033" y="-1" relative="1" as="geometry">
            <mxPoint as="offset" />
          </mxGeometry>
        </mxCell>
        <mxCell id="TzorIkQO2-a-A3ozFa3I-75" style="edgeStyle=orthogonalEdgeStyle;rounded=0;orthogonalLoop=1;jettySize=auto;html=1;exitX=0;exitY=0;exitDx=230;exitDy=187;exitPerimeter=0;" edge="1" parent="1" source="TzorIkQO2-a-A3ozFa3I-22" target="TzorIkQO2-a-A3ozFa3I-59">
          <mxGeometry relative="1" as="geometry">
            <Array as="points">
              <mxPoint x="1450" y="407" />
              <mxPoint x="1450" y="407" />
            </Array>
          </mxGeometry>
        </mxCell>
        <mxCell id="TzorIkQO2-a-A3ozFa3I-76" value="&amp;lt;&amp;lt;accesses&amp;gt;" style="edgeLabel;html=1;align=center;verticalAlign=middle;resizable=0;points=[];" vertex="1" connectable="0" parent="TzorIkQO2-a-A3ozFa3I-75">
          <mxGeometry x="-0.0163" y="-4" relative="1" as="geometry">
            <mxPoint x="16" y="-5" as="offset" />
          </mxGeometry>
        </mxCell>
      </root>
    </mxGraphModel>
  </diagram>
</mxfile>
